<svg aria-hidden="true" style="position: absolute; width: 0; height: 0; overflow: hidden;" version="1.1" xmlns="http://www.w3.org/2000/svg" xmlns:xlink="http://www.w3.org/1999/xlink">
<defs>
<symbol id="icon-eye-close" viewBox="0 0 71 32">
<path d="M70.738 20.945c0.36 0.582 0.458 1.273 0.272 1.921s-0.64 1.203-1.264 1.541c-0.412 0.232-0.885 0.353-1.367 0.349-0.484 0.004-0.961-0.111-1.381-0.335s-0.769-0.546-1.012-0.936l-6.289-10.102c-3.69 2.307-7.75 4.055-12.030 5.178l1.982 10.452c0.12 0.665-0.046 1.347-0.461 1.899s-1.047 0.931-1.76 1.055h-0.479c-0.644 0.002-1.267-0.208-1.761-0.591s-0.826-0.917-0.939-1.506l-1.948-10.293c-2.229 0.309-4.479 0.468-6.733 0.477-2.264 0.001-4.526-0.148-6.767-0.445l-1.948 10.293c-0.113 0.589-0.445 1.122-0.939 1.506s-1.117 0.593-1.761 0.591h-0.478c-0.713-0.124-1.345-0.503-1.76-1.055s-0.581-1.234-0.461-1.899l2.017-10.483c-4.293-1.116-8.367-2.864-12.065-5.178l-6.323 10.166c-0.244 0.381-0.589 0.697-1.002 0.92s-0.88 0.343-1.357 0.351c-0.479-0.002-0.949-0.12-1.364-0.344s-0.758-0.545-0.997-0.931c-0.239-0.386-0.364-0.824-0.364-1.269s0.127-0.883 0.366-1.268l6.665-10.737c-2.329-1.856-4.468-3.909-6.391-6.131-0.227-0.258-0.397-0.555-0.5-0.874s-0.136-0.654-0.097-0.985c0.038-0.331 0.147-0.652 0.32-0.944s0.407-0.549 0.687-0.755c0.275-0.213 0.593-0.373 0.935-0.471s0.702-0.131 1.058-0.099c0.356 0.033 0.702 0.131 1.017 0.288s0.593 0.372 0.818 0.631c2.139 2.479 4.582 4.718 7.28 6.671h0.034c6.674 4.839 14.913 7.437 23.378 7.37 10.014 0 17.704-3.272 23.343-7.338h0.068c2.697-1.953 5.14-4.192 7.28-6.671 0.223-0.261 0.499-0.478 0.813-0.639s0.659-0.262 1.015-0.297 0.716-0.005 1.060 0.091c0.343 0.095 0.663 0.253 0.94 0.464 0.281 0.207 0.514 0.464 0.687 0.755s0.282 0.613 0.32 0.944c0.038 0.331 0.005 0.666-0.097 0.985s-0.272 0.616-0.5 0.874c-1.923 2.222-4.062 4.275-6.391 6.131l6.631 10.674z"></path>
</symbol>
<symbol id="icon-eye-open" viewBox="0 0 49 32">
<path d="M24.615 0c-11.189 0-20.744 6.635-24.615 16 3.871 9.365 13.427 16 24.615 16s20.744-6.635 24.615-16c-3.871-9.365-13.426-16-24.615-16zM24.615 26.667c-6.176 0-11.189-4.779-11.189-10.667s5.013-10.667 11.189-10.667c6.176 0 11.189 4.779 11.189 10.667s-5.013 10.667-11.189 10.667zM24.615 9.6c-3.715 0-6.713 2.859-6.713 6.4s2.999 6.4 6.713 6.4c3.715 0 6.713-2.859 6.713-6.4s-2.999-6.4-6.713-6.4z"></path>
</symbol>
<symbol id="icon-facebook" viewBox="0 0 32 32">
<path d="M17.6 28.701c3.228-0.411 6.178-2.035 8.251-4.543s3.113-5.711 2.91-8.958c-0.204-3.247-1.636-6.295-4.007-8.524s-5.5-3.472-8.754-3.476c-3.258-0.002-6.394 1.237-8.769 3.467s-3.811 5.281-4.015 8.532c-0.204 3.251 0.839 6.458 2.917 8.967s5.035 4.131 8.267 4.536v-9.501h-3.2v-3.2h3.2v-2.646c0-2.139 0.224-2.915 0.64-3.698 0.41-0.774 1.043-1.407 1.818-1.816 0.611-0.328 1.371-0.525 2.699-0.61 0.526-0.034 1.208 0.008 2.045 0.128v3.040h-0.802c-1.467 0-2.074 0.069-2.435 0.262-0.216 0.111-0.391 0.287-0.502 0.502-0.192 0.362-0.262 0.72-0.262 2.189v2.648h4l-0.8 3.2h-3.2v9.501zM16 32c-8.837 0-16-7.163-16-16s7.163-16 16-16c8.837 0 16 7.163 16 16s-7.163 16-16 16z"></path>
</symbol>
<symbol id="icon-Vector-right" viewBox="0 0 78 32">
<path stroke-linejoin="round" stroke-linecap="round" stroke-miterlimit="4" stroke-width="5.3333" d="M59.852 3.556l14.815 12.444M74.667 16l-14.815 12.444M74.667 16h-71.111"></path>
</symbol>
<symbol id="icon-Vector-left" viewBox="0 0 80 32">
<path d="M20.431 1.008c0.991 1.194 0.838 2.975-0.342 3.978l-9.638 8.191h66.757c1.541 0 2.791 1.264 2.791 2.824s-1.25 2.824-2.791 2.824h-66.757l9.638 8.191c1.18 1.003 1.333 2.784 0.342 3.978s-2.752 1.349-3.932 0.346l-15.463-13.141c-0.076-0.062-0.149-0.129-0.22-0.2-0.231-0.233-0.414-0.499-0.547-0.783-0.038-0.081-0.072-0.163-0.102-0.247-0.055-0.153-0.097-0.312-0.126-0.476-0.028-0.163-0.042-0.327-0.042-0.491s0.014-0.328 0.042-0.491c0.028-0.164 0.071-0.323 0.126-0.476 0.030-0.083 0.064-0.166 0.102-0.247 0.134-0.285 0.316-0.55 0.547-0.783 0.070-0.071 0.144-0.138 0.22-0.2l15.462-13.141c1.18-1.003 2.94-0.848 3.932 0.346zM0.934 18.108c0.026 0.023 0.051 0.046 0.078 0.068l-0.078-0.068z"></path>
</symbol>
<symbol id="icon-Vector-Stroke-right" viewBox="0 0 80 32">
<path fill="#cfd2c6" style="fill: var(--color1, #cfd2c6)" d="M59.363 0.781c1.202-1.041 3.15-1.041 4.351 0l15.385 13.333c0.295 0.256 0.518 0.55 0.668 0.865 0.132 0.274 0.211 0.572 0.23 0.884 0.003 0.045 0.004 0.091 0.004 0.137 0 0.362-0.083 0.706-0.234 1.021s-0.373 0.609-0.668 0.865l-15.385 13.333c-1.202 1.041-3.15 1.041-4.351 0s-1.202-2.73 0-3.771l10.132-8.781h-66.418c-1.699 0-3.077-1.194-3.077-2.667s1.378-2.667 3.077-2.667h66.418l-10.132-8.781c-1.202-1.041-1.202-2.73 0-3.771z"></path>
</symbol>
<symbol id="icon-Vector-Stroke-left" viewBox="0 0 80 32">
<path fill="#cfd2c6" style="fill: var(--color1, #cfd2c6)" d="M20.431 1.008c0.991 1.194 0.838 2.975-0.342 3.978l-9.638 8.191h66.757c1.541 0 2.791 1.264 2.791 2.824s-1.25 2.824-2.791 2.824h-66.757l9.638 8.191c1.18 1.003 1.333 2.784 0.342 3.978s-2.752 1.349-3.932 0.346l-15.463-13.141c-0.076-0.062-0.149-0.129-0.22-0.2-0.231-0.233-0.414-0.499-0.547-0.783-0.038-0.081-0.072-0.163-0.102-0.247-0.055-0.153-0.097-0.312-0.126-0.476-0.028-0.163-0.042-0.327-0.042-0.491s0.014-0.328 0.042-0.491c0.028-0.164 0.071-0.323 0.126-0.476 0.030-0.083 0.064-0.166 0.102-0.247 0.134-0.285 0.316-0.55 0.547-0.783 0.070-0.071 0.144-0.138 0.22-0.2l15.462-13.141c1.18-1.003 2.94-0.848 3.932 0.346zM0.934 18.108c0.026 0.023 0.051 0.046 0.078 0.068l-0.078-0.068z"></path>
</symbol>
<symbol id="icon-hand-close" viewBox="0 0 26 32">
<path d="M15.026 24.002c0 0.422-0.131 0.834-0.375 1.185s-0.592 0.624-0.999 0.785c-0.407 0.161-0.854 0.204-1.286 0.121s-0.828-0.285-1.14-0.584c-0.311-0.298-0.523-0.678-0.609-1.092s-0.042-0.843 0.127-1.232c0.168-0.39 0.454-0.723 0.82-0.957s0.796-0.36 1.237-0.36c0.59 0 1.157 0.225 1.574 0.625s0.652 0.942 0.652 1.508zM19.965 21.429v-0.053c-0.543-1.693-2.685-4.839-7.165-4.839s-6.623 3.146-7.151 4.839v0.053c-0.048 0.142-0.076 0.29-0.083 0.44 0.004 0.383 0.152 0.752 0.415 1.039s0.626 0.475 1.022 0.528c0.396 0.053 0.798-0.031 1.134-0.238s0.584-0.522 0.698-0.889c0.083-0.267 0.918-2.586 3.965-2.586s3.882 2.32 3.965 2.586c0.114 0.367 0.362 0.682 0.698 0.889s0.739 0.291 1.134 0.238c0.396-0.053 0.758-0.241 1.022-0.528s0.411-0.656 0.415-1.039c-0.003-0.149-0.026-0.297-0.069-0.44zM25.6 14.404v5.332c0 3.253-1.349 6.372-3.749 8.672s-5.656 3.592-9.051 3.592c-3.395 0-6.651-1.292-9.051-3.592s-3.749-5.419-3.749-8.672v-11.198c0.004-1.13 0.474-2.213 1.308-3.012s1.964-1.25 3.144-1.253c0.375 0.003 0.749 0.048 1.113 0.133v-0.133c-0.002-0.966 0.339-1.904 0.966-2.661s1.504-1.286 2.487-1.503c0.983-0.217 2.013-0.108 2.922 0.31s1.644 1.118 2.084 1.988c0.674-0.238 1.398-0.317 2.11-0.23s1.392 0.337 1.982 0.73 1.072 0.915 1.406 1.524c0.334 0.609 0.51 1.286 0.512 1.974v3.866c0.364-0.085 0.738-0.13 1.113-0.133 1.18 0.004 2.31 0.454 3.144 1.253s1.304 1.882 1.308 3.012zM22.261 14.404c0-0.283-0.117-0.554-0.326-0.754s-0.492-0.312-0.787-0.312c-0.295 0-0.578 0.112-0.787 0.312s-0.326 0.471-0.326 0.754v0.533c0 0.424-0.176 0.831-0.489 1.131s-0.738 0.468-1.18 0.468c-0.443 0-0.868-0.168-1.181-0.468s-0.489-0.707-0.489-1.131v-8.531c0-0.283-0.117-0.554-0.326-0.754s-0.492-0.312-0.787-0.312-0.578 0.112-0.787 0.312c-0.209 0.2-0.326 0.471-0.326 0.754v6.932c0 0.424-0.176 0.831-0.489 1.131s-0.738 0.469-1.181 0.469c-0.443 0-0.867-0.169-1.181-0.469s-0.489-0.707-0.489-1.131v-9.065c0-0.283-0.117-0.554-0.326-0.754s-0.492-0.312-0.787-0.312c-0.295 0-0.578 0.112-0.787 0.312s-0.326 0.471-0.326 0.754v10.131c0 0.424-0.176 0.831-0.489 1.131s-0.738 0.468-1.181 0.468c-0.443 0-0.867-0.168-1.181-0.468s-0.489-0.707-0.489-1.131v-5.865c0-0.283-0.117-0.554-0.326-0.754s-0.492-0.312-0.787-0.312c-0.295 0-0.578 0.112-0.787 0.312s-0.326 0.471-0.326 0.754v11.198c0 2.404 0.997 4.71 2.771 6.41s4.181 2.655 6.69 2.655 4.916-0.955 6.69-2.655c1.774-1.7 2.771-4.006 2.771-6.41v-5.332z"></path>
</symbol>
<symbol id="icon-hand-open" viewBox="0 0 26 32">
<path d="M12.8 16.542c-4.175 0-6.691 3.009-7.578 4.306-0.248 0.361-0.381 0.783-0.381 1.215s0.132 0.853 0.381 1.215c0.887 1.297 3.404 4.306 7.578 4.306s6.691-3.009 7.578-4.306c0.248-0.361 0.381-0.783 0.381-1.215s-0.132-0.853-0.381-1.215c-0.887-1.297-3.404-4.306-7.578-4.306zM12.8 25.375c-3.025 0-4.945-2.319-5.629-3.312 0.684-0.994 2.604-3.312 5.629-3.312s4.945 2.319 5.629 3.312c-0.684 0.994-2.604 3.312-5.629 3.312zM21.527 10.47c-0.604 0.001-1.2 0.128-1.745 0.373v-4.789c-0.004-1.024-0.434-2.005-1.197-2.729s-1.797-1.132-2.876-1.136c-0.681-0.002-1.351 0.16-1.949 0.469-0.302-0.871-0.921-1.613-1.745-2.091s-1.802-0.663-2.757-0.52c-0.955 0.143-1.825 0.603-2.455 1.299s-0.979 1.582-0.984 2.499v0.925c-0.621-0.279-1.306-0.405-1.992-0.366s-1.35 0.243-1.931 0.591c-0.581 0.348-1.059 0.831-1.39 1.402s-0.505 1.212-0.505 1.864v11.593c0 3.221 1.349 6.31 3.749 8.588s5.656 3.557 9.051 3.557c3.395 0 6.651-1.28 9.051-3.557s3.749-5.367 3.749-8.588v-5.521c-0.004-1.024-0.434-2.005-1.197-2.729s-1.797-1.132-2.876-1.136zM23.273 19.855c0 2.635-1.104 5.163-3.068 7.027s-4.628 2.911-7.405 2.911c-2.778 0-5.441-1.047-7.405-2.911s-3.067-4.391-3.067-7.027v-11.593c0-0.439 0.184-0.861 0.511-1.171s0.771-0.485 1.234-0.485c0.463 0 0.907 0.175 1.234 0.485s0.511 0.732 0.511 1.171v6.073c0 0.293 0.123 0.574 0.341 0.781s0.514 0.323 0.823 0.323c0.309 0 0.605-0.116 0.823-0.323s0.341-0.488 0.341-0.781v-10.489c0-0.439 0.184-0.861 0.511-1.171s0.771-0.485 1.234-0.485c0.463 0 0.907 0.174 1.234 0.485s0.511 0.732 0.511 1.171v9.385c0 0.293 0.123 0.574 0.341 0.781s0.514 0.323 0.823 0.323c0.309 0 0.605-0.116 0.823-0.323s0.341-0.488 0.341-0.781v-7.177c0-0.439 0.184-0.861 0.511-1.171s0.771-0.485 1.234-0.485c0.463 0 0.907 0.175 1.234 0.485s0.511 0.732 0.511 1.171v8.833c0 0.293 0.123 0.574 0.341 0.781s0.514 0.323 0.823 0.323c0.308 0 0.604-0.116 0.823-0.323s0.341-0.488 0.341-0.781v-0.552c0-0.439 0.184-0.861 0.511-1.171s0.771-0.485 1.234-0.485c0.463 0 0.907 0.175 1.234 0.485s0.511 0.732 0.511 1.171v5.521zM14.545 22.063c0 0.328-0.102 0.648-0.294 0.92s-0.464 0.485-0.783 0.61c-0.319 0.125-0.67 0.158-1.008 0.094s-0.65-0.222-0.894-0.453c-0.244-0.232-0.41-0.527-0.478-0.848s-0.033-0.654 0.099-0.957 0.356-0.561 0.643-0.743c0.287-0.182 0.624-0.279 0.97-0.279 0.463 0 0.907 0.175 1.234 0.485s0.511 0.732 0.511 1.171z"></path>
</symbol>
</defs>
</svg>
